<svg width="224" height="48" viewBox="0 0 224 48" fill="none" xmlns="http://www.w3.org/2000/svg">
<g clip-path="url(#clip0_149_2439)">
<path d="M17.3017 16.4118C10.9915 14.7862 9.43955 13.993 9.43955 11.5611V11.4571C9.43955 9.66242 11.0556 8.24492 14.1209 8.24492C17.1862 8.24492 20.3798 9.62341 23.6119 11.8862L27.7802 5.76104C24.0864 2.75697 19.5462 1.06637 14.2363 1.06637C6.77181 1.05337 1.46199 5.48794 1.46199 12.1853V12.2893C1.46199 19.6239 6.20748 21.6787 13.5566 23.5773C19.6488 25.1639 20.9057 26.2173 20.9057 28.272V28.376C20.9057 30.5348 18.9305 31.8613 15.6472 31.8613C11.4788 31.8613 8.04155 30.1187 4.75819 27.3747L0.0126953 33.1227C4.38624 37.0761 9.9654 39.0268 15.4933 39.0268C23.3554 39.0268 28.8832 34.9174 28.8832 27.5698V27.4657C28.8832 21.0284 24.7149 18.3365 17.3145 16.3858L17.3017 16.4118Z" fill="#13124A"/>
<path d="M69.7716 15.9437V10.2476H61.8453V38.5327H69.7716V28.09C69.7716 21.3276 73.0037 18.1154 78.2622 18.1154H81.3147L78.1596 10.2476C73.9912 10.2476 71.3876 12.0423 69.7716 15.9437Z" fill="#13124A"/>
<path d="M95.3075 29.4944L88.9588 10.2346H80.5708L91.5111 38.6237C90.8313 40.0542 90.1131 40.4703 88.7536 40.4703H84.6878L87.3427 47.1157H89.7411C94.4866 47.1157 96.7696 44.9569 98.9115 39.1959L109.647 10.2216H101.412L95.3075 29.4814V29.4944Z" fill="#13124A"/>
<path d="M177.084 10.2346H169.17V38.5196H177.084V10.2346Z" fill="#13124A"/>
<path d="M177.302 0H168.965V7.12652H177.302V0Z" fill="#13124A"/>
<path d="M217.433 3.00406H209.507V10.2346H204.723L207.455 17.1011H209.507V30.5088C209.507 37.0501 212.79 39.0008 217.638 39.0008H223.628L220.883 31.9263H219.986C218.216 31.9263 217.433 31.029 217.433 29.1823V17.1011H224V10.2346H217.433V3.00406Z" fill="#13124A"/>
<path d="M196.476 9.71445C192.462 9.71445 190.115 11.8862 188.293 14.2531V10.2476H180.367V38.5197H188.293V22.7451C188.293 18.9477 190.217 16.997 193.244 16.997C196.271 16.997 198.041 18.9477 198.041 22.7451V38.5197H205.967V20.2222C205.967 13.7329 202.479 9.71445 196.489 9.71445H196.476Z" fill="#13124A"/>
<path d="M151.817 8.96017C146.879 8.96017 142.48 11.262 139.607 14.8643C139.607 14.7342 139.607 14.5912 139.607 14.4611V14.3571C139.607 6.81441 134.349 1.58656 125.64 1.58656H110.737V38.5196H118.766V27.4397H124.858C129.424 27.4397 133.477 26.0612 136.17 23.3563C136.131 23.8504 136.093 24.3446 136.093 24.8518C136.093 33.6429 143.121 40.7564 151.804 40.7564C160.487 40.7564 167.503 33.6299 167.503 24.8518C167.503 16.0737 160.475 8.94717 151.804 8.94717L151.817 8.96017ZM131.489 14.6172C131.489 17.7903 129.142 20.2222 125.127 20.2222H118.766V8.92116H124.973C128.988 8.92116 131.489 10.8719 131.489 14.5131V14.6172ZM151.817 33.76C146.956 33.76 143.019 29.7806 143.019 24.8518C143.019 19.9231 146.956 15.9436 151.817 15.9436C156.678 15.9436 160.603 19.9361 160.603 24.8518C160.603 29.7675 156.665 33.76 151.817 33.76Z" fill="#13124A"/>
<path d="M151.817 20.5473C149.457 20.5473 147.559 22.485 147.559 24.8648C147.559 27.2446 149.47 29.1693 151.817 29.1693C154.164 29.1693 156.062 27.2446 156.062 24.8648C156.062 22.485 154.164 20.5473 151.817 20.5473Z" fill="#E70007"/>
<path d="M47.4677 9.71445C43.3507 9.71445 40.6958 11.6651 38.772 14.3051V10.2476H30.8457V48.013H38.772V34.8393C40.6445 37.1022 43.2481 39.0528 47.4677 39.0528C54.0858 39.0528 60.178 33.89 60.178 24.4357V24.3316C60.178 14.8903 53.9832 9.71445 47.4677 9.71445ZM52.2645 24.4357C52.2645 29.1823 49.1351 32.2514 45.4413 32.2514C41.7475 32.2514 38.6694 29.1303 38.6694 24.4357V24.3316C38.6694 19.637 41.7475 16.5159 45.4413 16.5159C49.1351 16.5159 52.2645 19.624 52.2645 24.3316V24.4357Z" fill="#13124A"/>
</g>
<defs>
<clipPath id="clip0_149_2439">
<rect width="224" height="48" fill="white"/>
</clipPath>
</defs>
</svg>
